<?xml version="1.0" encoding="UTF-8" standalone="no"?>
<svg
   xmlns:dc="http://purl.org/dc/elements/1.1/"
   xmlns:cc="http://creativecommons.org/ns#"
   xmlns:rdf="http://www.w3.org/1999/02/22-rdf-syntax-ns#"
   xmlns:svg="http://www.w3.org/2000/svg"
   xmlns="http://www.w3.org/2000/svg"
   xmlns:sodipodi="http://sodipodi.sourceforge.net/DTD/sodipodi-0.dtd"
   xmlns:inkscape="http://www.inkscape.org/namespaces/inkscape"
   width="65.264877"
   height="56.520039"
   viewBox="0 0 67984.779 58874.827"
   version="1.1"
   id="svg12"
   sodipodi:docname="topleftlogo.svg"
   style="clip-rule:evenodd;fill-rule:evenodd;image-rendering:optimizeQuality;shape-rendering:geometricPrecision;text-rendering:geometricPrecision"
   inkscape:version="0.92.3 (2405546, 2018-03-11)">
  <metadata
     id="metadata16">
    <rdf:RDF>
      <cc:Work
         rdf:about="">
        <dc:format>image/svg+xml</dc:format>
        <dc:type
           rdf:resource="http://purl.org/dc/dcmitype/StillImage" />
        <dc:title />
      </cc:Work>
    </rdf:RDF>
  </metadata>
  <sodipodi:namedview
     pagecolor="#ffffff"
     bordercolor="#666666"
     borderopacity="1"
     objecttolerance="10"
     gridtolerance="10"
     guidetolerance="10"
     inkscape:pageopacity="0"
     inkscape:pageshadow="2"
     inkscape:window-width="1366"
     inkscape:window-height="705"
     id="namedview14"
     showgrid="false"
     inkscape:zoom="3.0110824"
     inkscape:cx="-16.768969"
     inkscape:cy="21.213948"
     inkscape:window-x="0"
     inkscape:window-y="352"
     inkscape:window-maximized="1"
     inkscape:current-layer="svg12"
     inkscape:pagecheckerboard="true" />
  <defs
     id="defs4">
    <style
       id="style2"><![CDATA[
    .fil0 {fill:white}
   ]]></style>
    <style
       id="style2-6"><![CDATA[
    .fil0 {fill:white}
   ]]></style>
  </defs>
  <path
     inkscape:connector-curvature="0"
     style="fill:#999999;fill-opacity:1;stroke-width:47.72860336"
     d="M 33991.998,-0.33072575 25494.294,4905.9283 l -8498.097,4906.22 v 0 L 8498.885,14718.406 0.393,19625.217 l 8498.492,4906.259 8497.312,4906.219 8498.097,4906.259 8498.492,4906.219 8498.099,-4906.219 8497.708,-4906.259 8498.49,-4906.219 8497.7,-4906.259 -8497.7,-4906.22 -8498.1,-4906.2587 v 0 l -8497.705,-4906.81 z"
     id="path1301" />
  <path
     inkscape:connector-curvature="0"
     style="fill:#cccccc;fill-opacity:1;stroke-width:47.72860336"
     d="m 67984.393,19625.217 -8498.49,4906.259 -8498.1,4906.219 -8498.1,4906.259 -8497.705,4906.219 v 9812.519 9812.478 l 8498.099,-4906.259 8497.706,-4906.219 8498.88,-4906.26 8497.71,-4906.259 v -9811.887 z"
     id="path1303" />
  <path
     inkscape:connector-curvature="0"
     style="fill:#666666;fill-opacity:1;stroke-width:47.72860336"
     d="m 0,19625.217 v 9812.478 9811.927 l 8497.704,4906.81 8498.099,4906.26 8497.704,4906.219 8498.098,4906.259 V 49062.692 39250.173 L 25493.507,34343.954 16995.015,29437.695 8497.704,24531.476 Z"
     id="path1305" />
  <g
     aria-label="БЕТОН"
     transform="matrix(280.68247,0,0,280.68247,2537016,-3805874.7)"
     style="font-style:normal;font-variant:normal;font-weight:bold;font-stretch:normal;font-size:40px;line-height:1.25;font-family:roboto;-inkscape-font-specification:'roboto Bold';text-align:center;letter-spacing:0px;word-spacing:0px;text-anchor:middle;fill:#ffffff;fill-opacity:1;stroke:none"
     id="flowRoot1438">
    <path
       d="m -8959.1025,13654.427 h -12.6954 v 5.508 h 4.5704 q 5.0195,0 7.9492,2.442 2.9492,2.421 2.9492,6.542 0,4.141 -2.9297,6.661 -2.9101,2.5 -7.7539,2.539 h -10.7031 v -28.438 h 18.6133 z m -12.6954,10.235 v 8.75 h 4.668 q 2.2461,0 3.5742,-1.231 1.3477,-1.23 1.3477,-3.301 0,-1.933 -1.2891,-3.046 -1.2695,-1.133 -3.4961,-1.172 z"
       id="path1440"
       inkscape:connector-curvature="0" />
    <path
       d="m -8935.4697,13665.794 h -11.25 v 7.618 h 13.2031 v 4.707 h -19.0625 v -28.438 h 19.0234 v 4.746 h -13.164 v 6.778 h 11.25 z"
       id="path1442"
       inkscape:connector-curvature="0" />
    <path
       d="m -8908.6729,13654.427 h -8.7109 v 23.692 h -5.8594 v -23.692 h -8.5937 v -4.746 h 23.164 z"
       id="path1444"
       inkscape:connector-curvature="0" />
    <path
       d="m -8881.9541,13664.544 q 0,4.2 -1.4844,7.364 -1.4844,3.164 -4.2578,4.883 -2.7539,1.718 -6.3281,1.718 -3.5352,0 -6.3086,-1.699 -2.7734,-1.699 -4.2969,-4.844 -1.5234,-3.164 -1.543,-7.265 v -1.407 q 0,-4.199 1.504,-7.382 1.5234,-3.203 4.2773,-4.903 2.7734,-1.718 6.3281,-1.718 3.5547,0 6.3086,1.718 2.7735,1.7 4.2774,4.903 1.5234,3.183 1.5234,7.363 z m -5.9375,-1.289 q 0,-4.472 -1.6016,-6.796 -1.6015,-2.325 -4.5703,-2.325 -2.9492,0 -4.5508,2.305 -1.6015,2.285 -1.6211,6.719 v 1.386 q 0,4.356 1.6016,6.758 1.6016,2.403 4.6094,2.403 2.9492,0 4.5312,-2.305 1.5821,-2.324 1.6016,-6.758 z"
       id="path1446"
       inkscape:connector-curvature="0" />
    <path
       d="m -8854.5127,13678.119 h -5.8594 v -12.188 h -11.4258 v 12.188 h -5.8593 v -28.438 h 5.8593 v 11.524 h 11.4258 v -11.524 h 5.8594 z"
       id="path1448"
       inkscape:connector-curvature="0" />
  </g>
</svg>
