<?xml version="1.0" encoding="UTF-8" standalone="no"?>
<!-- Roman Inozemtsev: https://github.com/mir-one/  -->

<svg
   xmlns:dc="http://purl.org/dc/elements/1.1/"
   xmlns:cc="http://creativecommons.org/ns#"
   xmlns:rdf="http://www.w3.org/1999/02/22-rdf-syntax-ns#"
   xmlns:svg="http://www.w3.org/2000/svg"
   xmlns="http://www.w3.org/2000/svg"
   xmlns:sodipodi="http://sodipodi.sourceforge.net/DTD/sodipodi-0.dtd"
   xmlns:inkscape="http://www.inkscape.org/namespaces/inkscape"
   version="1.1"
   id="Слой_1"
   x="0px"
   y="0px"
   viewBox="0 0 64.000001 64"
   xml:space="preserve"
   sodipodi:docname="wB-bg-M100.svg"
   inkscape:version="0.92.3 (2405546, 2018-03-11)"
   width="64"
   height="64"><metadata
   id="metadata19"><rdf:RDF><cc:Work
       rdf:about=""><dc:format>image/svg+xml</dc:format><dc:type
         rdf:resource="http://purl.org/dc/dcmitype/StillImage" /></cc:Work></rdf:RDF></metadata><defs
   id="defs17" /><sodipodi:namedview
   pagecolor="#ffffff"
   bordercolor="#666666"
   borderopacity="1"
   objecttolerance="10"
   gridtolerance="10"
   guidetolerance="10"
   inkscape:pageopacity="0"
   inkscape:pageshadow="2"
   inkscape:window-width="1366"
   inkscape:window-height="705"
   id="namedview15"
   showgrid="false"
   inkscape:zoom="3.5223881"
   inkscape:cx="-5.913437"
   inkscape:cy="48.48946"
   inkscape:window-x="0"
   inkscape:window-y="352"
   inkscape:window-maximized="1"
   inkscape:current-layer="Слой_1" />
<style
   type="text/css"
   id="style2">
	.st0{fill:#F79420;}
	.st1{fill:#D57E28;}
	.st2{fill:#FFFFFF;}
</style>

<rect
   style="opacity:1;fill:#999999;fill-opacity:1;stroke:none;stroke-width:6.08133793;stroke-miterlimit:4;stroke-dasharray:none;stroke-opacity:1"
   id="rect1330"
   width="64"
   height="64"
   x="0"
   y="0" /><g
   aria-label="М-100"
   transform="matrix(0.43355553,0,0,0.43355553,3897.827,-5892.1439)"
   style="font-style:normal;font-variant:normal;font-weight:bold;font-stretch:normal;font-size:40px;line-height:1.25;font-family:roboto;-inkscape-font-specification:'roboto Bold';text-align:center;letter-spacing:0px;word-spacing:0px;text-anchor:middle;fill:#ffffff;fill-opacity:1;stroke:none"
   id="flowRoot1315"><path
     d="m -8965.626,13649.681 7.3047,20.625 7.2656,-20.625 h 7.6953 v 28.438 h -5.8789 v -7.774 l 0.586,-13.418 -7.6758,21.192 h -4.0234 l -7.6563,-21.172 0.5859,13.398 v 7.774 h -5.8593 v -28.438 z"
     id="path831"
     inkscape:connector-curvature="0" /><path
     d="m -8927.5986,13668.216 h -10.9961 v -4.55 h 10.9961 z"
     id="path833"
     inkscape:connector-curvature="0" /><path
     d="m -8909.5518,13678.119 h -5.6445 v -21.758 l -6.7383,2.09 v -4.59 l 11.7774,-4.219 h 0.6054 z"
     id="path835"
     inkscape:connector-curvature="0" /><path
     d="m -8881.1533,13666.361 q 0,5.898 -2.4414,9.023 -2.4414,3.125 -7.1485,3.125 -4.6484,0 -7.1093,-3.066 -2.461,-3.066 -2.5196,-8.789 v -5.235 q 0,-5.957 2.461,-9.042 2.4804,-3.086 7.1289,-3.086 4.6484,0 7.1093,3.066 2.461,3.047 2.5196,8.77 z m -5.6446,-5.742 q 0,-3.535 -0.9765,-5.137 -0.957,-1.621 -3.0078,-1.621 -1.9922,0 -2.9492,1.543 -0.9375,1.523 -0.9961,4.785 v 6.914 q 0,3.477 0.9375,5.176 0.957,1.68 3.0468,1.68 2.0703,0 2.9883,-1.622 0.918,-1.621 0.957,-4.96 z"
     id="path837"
     inkscape:connector-curvature="0" /><path
     d="m -8858.1846,13666.361 q 0,5.898 -2.4414,9.023 -2.4414,3.125 -7.1484,3.125 -4.6485,0 -7.1094,-3.066 -2.4609,-3.066 -2.5195,-8.789 v -5.235 q 0,-5.957 2.4609,-9.042 2.4805,-3.086 7.1289,-3.086 4.6485,0 7.1094,3.066 2.4609,3.047 2.5195,8.77 z m -5.6445,-5.742 q 0,-3.535 -0.9766,-5.137 -0.957,-1.621 -3.0078,-1.621 -1.9922,0 -2.9492,1.543 -0.9375,1.523 -0.9961,4.785 v 6.914 q 0,3.477 0.9375,5.176 0.957,1.68 3.0469,1.68 2.0703,0 2.9883,-1.622 0.9179,-1.621 0.957,-4.96 z"
     id="path839"
     inkscape:connector-curvature="0" /></g></svg>