<?xml version="1.0" encoding="UTF-8" standalone="no"?>
<!-- Roman Inozemtsev: https://github.com/mir-one/  -->

<svg
   xmlns:dc="http://purl.org/dc/elements/1.1/"
   xmlns:cc="http://creativecommons.org/ns#"
   xmlns:rdf="http://www.w3.org/1999/02/22-rdf-syntax-ns#"
   xmlns:svg="http://www.w3.org/2000/svg"
   xmlns="http://www.w3.org/2000/svg"
   xmlns:sodipodi="http://sodipodi.sourceforge.net/DTD/sodipodi-0.dtd"
   xmlns:inkscape="http://www.inkscape.org/namespaces/inkscape"
   version="1.1"
   id="Слой_1"
   x="0px"
   y="0px"
   viewBox="0 0 64.000001 64"
   xml:space="preserve"
   sodipodi:docname="wB-bg-M250.svg"
   inkscape:version="0.92.3 (2405546, 2018-03-11)"
   width="64"
   height="64"><metadata
   id="metadata19"><rdf:RDF><cc:Work
       rdf:about=""><dc:format>image/svg+xml</dc:format><dc:type
         rdf:resource="http://purl.org/dc/dcmitype/StillImage" /></cc:Work></rdf:RDF></metadata><defs
   id="defs17" /><sodipodi:namedview
   pagecolor="#ffffff"
   bordercolor="#666666"
   borderopacity="1"
   objecttolerance="10"
   gridtolerance="10"
   guidetolerance="10"
   inkscape:pageopacity="0"
   inkscape:pageshadow="2"
   inkscape:window-width="1366"
   inkscape:window-height="705"
   id="namedview15"
   showgrid="false"
   inkscape:zoom="3.5223881"
   inkscape:cx="-70.074451"
   inkscape:cy="72.904714"
   inkscape:window-x="0"
   inkscape:window-y="352"
   inkscape:window-maximized="1"
   inkscape:current-layer="Слой_1" />
<style
   type="text/css"
   id="style2">
	.st0{fill:#F79420;}
	.st1{fill:#D57E28;}
	.st2{fill:#FFFFFF;}
</style>

<rect
   y="0"
   x="0"
   height="64"
   width="64"
   id="rect1332"
   style="opacity:1;fill:#999999;fill-opacity:1;stroke:none;stroke-width:6.08133793;stroke-miterlimit:4;stroke-dasharray:none;stroke-opacity:1" /><g
   aria-label="М-250"
   transform="matrix(0.43355553,0,0,0.43355553,3897.827,-5892.1426)"
   style="font-style:normal;font-variant:normal;font-weight:bold;font-stretch:normal;font-size:40px;line-height:1.25;font-family:roboto;-inkscape-font-specification:'roboto Bold';text-align:center;letter-spacing:0px;word-spacing:0px;text-anchor:middle;fill:#ffffff;fill-opacity:1;stroke:none"
   id="flowRoot1345"><path
     d="m -8965.626,13649.681 7.3047,20.625 7.2656,-20.625 h 7.6953 v 28.438 h -5.8789 v -7.774 l 0.586,-13.418 -7.6758,21.192 h -4.0234 l -7.6563,-21.172 0.5859,13.398 v 7.774 h -5.8593 v -28.438 z"
     style=""
     id="path831" /><path
     d="m -8927.5986,13668.216 h -10.9961 v -4.55 h 10.9961 z"
     style=""
     id="path833" /><path
     d="m -8903.7705,13678.119 h -19.4922 v -3.867 l 9.1992,-9.805 q 1.8946,-2.07 2.793,-3.613 0.918,-1.543 0.918,-2.93 0,-1.895 -0.9571,-2.969 -0.957,-1.094 -2.7343,-1.094 -1.9141,0 -3.0274,1.328 -1.0937,1.309 -1.0937,3.458 h -5.6641 q 0,-2.598 1.2305,-4.747 1.25,-2.148 3.5156,-3.359 2.2656,-1.23 5.1367,-1.23 4.3945,0 6.8164,2.109 2.4414,2.109 2.4414,5.957 0,2.109 -1.0937,4.297 -1.0938,2.187 -3.75,5.098 l -6.4649,6.816 h 12.2266 z"
     style=""
     id="path835" /><path
     d="m -8899.4541,13664.134 1.6406,-14.453 h 15.9375 v 4.707 h -11.3086 l -0.7031,6.114 q 2.0117,-1.075 4.2773,-1.075 4.0625,0 6.3672,2.52 2.3047,2.519 2.3047,7.051 0,2.754 -1.1719,4.941 -1.1523,2.168 -3.3203,3.379 -2.1679,1.191 -5.1172,1.191 -2.5781,0 -4.7851,-1.035 -2.207,-1.055 -3.4961,-2.949 -1.2695,-1.895 -1.3477,-4.316 h 5.586 q 0.1758,1.777 1.2304,2.773 1.0743,0.977 2.793,0.977 1.9141,0 2.9492,-1.368 1.0352,-1.386 1.0352,-3.906 0,-2.422 -1.1914,-3.711 -1.1914,-1.289 -3.3789,-1.289 -2.0117,0 -3.2617,1.055 l -0.5469,0.508 z"
     style=""
     id="path837" /><path
     d="m -8858.1846,13666.361 q 0,5.898 -2.4414,9.023 -2.4414,3.125 -7.1484,3.125 -4.6485,0 -7.1094,-3.066 -2.4609,-3.066 -2.5195,-8.789 v -5.235 q 0,-5.957 2.4609,-9.042 2.4805,-3.086 7.1289,-3.086 4.6485,0 7.1094,3.066 2.4609,3.047 2.5195,8.77 z m -5.6445,-5.742 q 0,-3.535 -0.9766,-5.137 -0.957,-1.621 -3.0078,-1.621 -1.9922,0 -2.9492,1.543 -0.9375,1.523 -0.9961,4.785 v 6.914 q 0,3.477 0.9375,5.176 0.957,1.68 3.0469,1.68 2.0703,0 2.9883,-1.622 0.9179,-1.621 0.957,-4.96 z"
     style=""
     id="path839" /></g></svg>