<?xml version="1.0" encoding="UTF-8" standalone="no"?>
<!-- Roman Inozemtsev: https://github.com/mir-one/  -->

<svg
   xmlns:dc="http://purl.org/dc/elements/1.1/"
   xmlns:cc="http://creativecommons.org/ns#"
   xmlns:rdf="http://www.w3.org/1999/02/22-rdf-syntax-ns#"
   xmlns:svg="http://www.w3.org/2000/svg"
   xmlns="http://www.w3.org/2000/svg"
   xmlns:sodipodi="http://sodipodi.sourceforge.net/DTD/sodipodi-0.dtd"
   xmlns:inkscape="http://www.inkscape.org/namespaces/inkscape"
   version="1.1"
   id="Слой_1"
   x="0px"
   y="0px"
   viewBox="0 0 64.000001 64"
   xml:space="preserve"
   sodipodi:docname="wB-bg-M300.svg"
   inkscape:version="0.92.3 (2405546, 2018-03-11)"
   width="64"
   height="64"><metadata
   id="metadata19"><rdf:RDF><cc:Work
       rdf:about=""><dc:format>image/svg+xml</dc:format><dc:type
         rdf:resource="http://purl.org/dc/dcmitype/StillImage" /></cc:Work></rdf:RDF></metadata><defs
   id="defs17" /><sodipodi:namedview
   pagecolor="#ffffff"
   bordercolor="#666666"
   borderopacity="1"
   objecttolerance="10"
   gridtolerance="10"
   guidetolerance="10"
   inkscape:pageopacity="0"
   inkscape:pageshadow="2"
   inkscape:window-width="1366"
   inkscape:window-height="705"
   id="namedview15"
   showgrid="false"
   inkscape:zoom="3.5223881"
   inkscape:cx="29.006058"
   inkscape:cy="-17.374949"
   inkscape:window-x="0"
   inkscape:window-y="352"
   inkscape:window-maximized="1"
   inkscape:current-layer="Слой_1" />
<style
   type="text/css"
   id="style2">
	.st0{fill:#F79420;}
	.st1{fill:#D57E28;}
	.st2{fill:#FFFFFF;}
</style>

<rect
   style="opacity:1;fill:#999999;fill-opacity:1;stroke:none;stroke-width:6.08133745;stroke-miterlimit:4;stroke-dasharray:none;stroke-opacity:1"
   id="rect1336"
   width="64"
   height="64"
   x="0"
   y="0" /><g
   aria-label="М-300"
   transform="matrix(0.43355552,0,0,0.43355552,3897.4653,-5892.1428)"
   style="font-style:normal;font-variant:normal;font-weight:bold;font-stretch:normal;font-size:40px;line-height:1.25;font-family:roboto;-inkscape-font-specification:'roboto Bold';text-align:center;letter-spacing:0px;word-spacing:0px;text-anchor:middle;fill:#ffffff;fill-opacity:1;stroke:none"
   id="flowRoot1355"><path
     d="m -8965.626,13649.681 7.3047,20.625 7.2656,-20.625 h 7.6953 v 28.438 h -5.8789 v -7.774 l 0.586,-13.418 -7.6758,21.192 h -4.0234 l -7.6563,-21.172 0.5859,13.398 v 7.774 h -5.8593 v -28.438 z"
     style=""
     id="path845" /><path
     d="m -8927.5986,13668.216 h -10.9961 v -4.55 h 10.9961 z"
     style=""
     id="path847" /><path
     d="m -8917.5205,13661.4 h 3.0078 q 2.1484,0 3.1836,-1.074 1.0352,-1.074 1.0352,-2.852 0,-1.719 -1.0352,-2.676 -1.0156,-0.957 -2.8125,-0.957 -1.6211,0 -2.7148,0.899 -1.0938,0.879 -1.0938,2.304 h -5.6445 q 0,-2.226 1.1914,-3.984 1.2109,-1.777 3.3594,-2.773 2.1679,-0.996 4.7656,-0.996 4.5117,0 7.0703,2.168 2.5586,2.148 2.5586,5.937 0,1.953 -1.1914,3.594 -1.1914,1.64 -3.125,2.519 2.4023,0.86 3.5742,2.578 1.1914,1.719 1.1914,4.063 0,3.789 -2.7734,6.074 -2.7539,2.285 -7.3047,2.285 -4.2578,0 -6.9727,-2.246 -2.6953,-2.246 -2.6953,-5.937 h 5.6445 q 0,1.601 1.1914,2.617 1.211,1.016 2.9688,1.016 2.0117,0 3.1445,-1.055 1.1524,-1.074 1.1524,-2.832 0,-4.258 -4.6875,-4.258 h -2.9883 z"
     style=""
     id="path849" /><path
     d="m -8881.1533,13666.361 q 0,5.898 -2.4414,9.023 -2.4414,3.125 -7.1485,3.125 -4.6484,0 -7.1093,-3.066 -2.461,-3.066 -2.5196,-8.789 v -5.235 q 0,-5.957 2.461,-9.042 2.4804,-3.086 7.1289,-3.086 4.6484,0 7.1093,3.066 2.461,3.047 2.5196,8.77 z m -5.6446,-5.742 q 0,-3.535 -0.9765,-5.137 -0.957,-1.621 -3.0078,-1.621 -1.9922,0 -2.9492,1.543 -0.9375,1.523 -0.9961,4.785 v 6.914 q 0,3.477 0.9375,5.176 0.957,1.68 3.0468,1.68 2.0703,0 2.9883,-1.622 0.918,-1.621 0.957,-4.96 z"
     style=""
     id="path851" /><path
     d="m -8858.1846,13666.361 q 0,5.898 -2.4414,9.023 -2.4414,3.125 -7.1484,3.125 -4.6485,0 -7.1094,-3.066 -2.4609,-3.066 -2.5195,-8.789 v -5.235 q 0,-5.957 2.4609,-9.042 2.4805,-3.086 7.1289,-3.086 4.6485,0 7.1094,3.066 2.4609,3.047 2.5195,8.77 z m -5.6445,-5.742 q 0,-3.535 -0.9766,-5.137 -0.957,-1.621 -3.0078,-1.621 -1.9922,0 -2.9492,1.543 -0.9375,1.523 -0.9961,4.785 v 6.914 q 0,3.477 0.9375,5.176 0.957,1.68 3.0469,1.68 2.0703,0 2.9883,-1.622 0.9179,-1.621 0.957,-4.96 z"
     style=""
     id="path853" /></g></svg>